<?xml version="1.0" encoding="utf-8"?>
<!-- Generator: Adobe Illustrator 25.0.0, SVG Export Plug-In . SVG Version: 6.00 Build 0)  -->
<svg version="1.1" id="Layer_1" xmlns="http://www.w3.org/2000/svg" xmlns:xlink="http://www.w3.org/1999/xlink" x="0px" y="0px"
	 viewBox="0 0 1048.13 502.21" style="enable-background:new 0 0 1048.13 502.21;" xml:space="preserve">
<style type="text/css">
	.st0{fill:#141D38;}
	.st1{fill:url(#SVGID_1_);}
	.st2{fill:url(#SVGID_2_);}
	.st3{fill:url(#SVGID_3_);}
	.st4{fill:url(#SVGID_4_);}
	.st5{fill:none;stroke:#000000;stroke-width:15;stroke-miterlimit:10;}
	.st6{fill:url(#SVGID_5_);}
</style>
<g>
	<g>
		<g>
			<path class="st0" d="M377.13,341.53v-52.91l-52.1-88.93h33.99l33.78,59.02l33.78-59.02h33.99l-52.1,88.93v52.91H377.13z"/>
			<path class="st0" d="M451,290.05c0-16.08,5.29-29.1,15.67-38.87c10.38-9.97,23.81-14.86,39.89-14.86
				c15.67,0,28.29,5.09,38.06,15.06c9.77,9.97,14.65,22.18,14.65,37.04c0,3.46-0.2,6.71-0.41,9.77h-77.54
				c0.61,12.21,11.19,20.15,27.27,20.15c9.57,0,17.91-3.26,25.03-9.97l17.7,16.89c-12.01,12.41-26.86,18.72-44.16,18.72
				c-16.89,0-30.32-4.88-40.7-14.45c-10.38-9.77-15.47-22.59-15.47-38.66V290.05z M528.74,278.45c0-9.57-9.97-17.1-22.18-17.1
				c-13.23,0-24.01,7.53-24.83,17.1H528.74z"/>
			<path class="st0" d="M578.81,199.69h30.32v103.79c0,9.16,3.46,13.23,11.8,13.23c2.85,0,5.29-0.2,7.33-0.81v26.86
				c-3.46,1.02-8.34,1.43-14.45,1.43c-23.4,0-35-12.01-35-36.02V199.69z"/>
			<path class="st0" d="M647.8,266.44h-13.43v-27.47h13.43v-39.28h29.51v39.28h22.79v27.47h-22.79v36.63
				c0,9.77,3.87,13.63,13.02,13.63c1.63,0,4.27-0.2,7.73-0.81v26.86c-4.07,1.02-8.95,1.43-14.86,1.43
				c-23.61,0-35.41-12.21-35.41-36.63V266.44z"/>
			<path class="st0" d="M727.99,307.34c5.7,6.71,16.48,11.19,28.08,11.19c10.38,0,15.47-2.85,15.47-8.34c0-2.04-1.22-3.66-3.46-4.88
				c-2.24-1.22-6.31-2.64-12.41-4.07c-6.11-1.43-10.79-2.85-13.84-3.87c-15.67-5.5-23.61-14.86-23.61-28.49
				c0-10.38,3.87-18.52,11.6-24.22c7.73-5.9,17.09-8.75,28.29-8.75c14.45,0,26.05,4.48,35.21,13.23l-14.45,19.94
				c-5.5-5.09-12.82-7.53-21.57-7.53c-6.51,0-10.17,2.65-10.17,6.51c0,2.65,1.02,4.07,4.27,5.5c3.87,1.63,12.41,3.05,23.81,7.12
				c16.89,5.7,25.23,15.47,25.23,29.1c0,20.96-15.06,34.59-45.18,34.59c-19.94,0-34.8-6.1-44.77-18.32L727.99,307.34z"/>
			<path class="st0" d="M835.03,195.82c9.57,0,17.3,7.53,17.3,17.3c0,9.57-7.73,17.09-17.3,17.09c-9.56,0-17.3-7.53-17.3-17.09
				C817.74,203.35,825.47,195.82,835.03,195.82z M819.98,238.97h30.32v66.55c0,7.53,1.83,10.79,6.92,10.79
				c1.83,0,3.05-0.2,3.66-0.41v25.85c-2.65,1.02-7.33,1.63-14.04,1.63c-17.91,0-26.86-9.57-26.86-28.9V238.97z"/>
			<path class="st0" d="M879.81,341.53V238.97h30.32v12.82c4.27-8.95,15.67-15.06,29.51-15.06c24.62,0,38.87,15.87,38.87,42.53
				v25.85c0,7.94,1.63,10.78,6.72,10.78h2.03l1.22-0.2v25.64c-2.44,1.02-6.92,1.43-13.23,1.43c-18.11,0-27.07-9.77-27.07-29.31
				v-30.52c0-12.01-6.31-19.33-18.32-19.33c-11.4,0-19.74,8.34-19.74,20.35v57.59H879.81z"/>
		</g>
	</g>
	<g>
		<linearGradient id="SVGID_1_" gradientUnits="userSpaceOnUse" x1="-11.5758" y1="371.7717" x2="230.7114" y2="-17.3201">
			<stop  offset="0" style="stop-color:#07D5FB"/>
			<stop  offset="1" style="stop-color:#6B4AB6"/>
		</linearGradient>
		<path class="st1" d="M114.06,179.74c0-6.1,4.94-11.04,11.04-11.04c3.42,0,6.48,1.56,8.51,4c0.55-1.74,0.84-3.58,0.84-5.5
			c0-10.11-8.19-18.3-18.3-18.3c-10.11,0-18.3,8.19-18.3,18.3c0,9.95,7.95,18.03,17.84,18.28
			C114.66,183.81,114.06,181.85,114.06,179.74z"/>
		<linearGradient id="SVGID_2_" gradientUnits="userSpaceOnUse" x1="13.3104" y1="387.2683" x2="255.5975" y2="-1.8235">
			<stop  offset="0" style="stop-color:#07D5FB"/>
			<stop  offset="1" style="stop-color:#6B4AB6"/>
		</linearGradient>
		<path class="st2" d="M289.67,172.18c0.15,1.74,0.25,3.48,0.25,5.26c0,4.23-0.44,8.36-1.27,12.33
			c-5.68,27.1-29.72,47.45-58.5,47.45c-8.85,0-17.25-1.93-24.8-5.39c-12.08-5.52-22.01-14.96-28.15-26.68
			c-6.15,11.72-16.06,21.15-28.14,26.68c-7.55,3.46-15.95,5.39-24.81,5.39c-28.78,0-52.82-20.35-58.5-47.45
			c-0.83-3.97-1.27-8.1-1.27-12.33c0-1.78,0.09-3.52,0.25-5.26c0.97,10.25,4.92,19.62,10.99,27.25
			c9.5,11.99,24.19,19.68,40.68,19.68c18.14,0,34.11-9.3,43.39-23.4c5.4-8.18,8.53-17.97,8.53-28.52c0-4.74-0.64-9.35-1.83-13.72
			c-0.15-0.57-0.33-1.15-0.51-1.73c-0.23-0.77-0.5-1.52-0.78-2.27c-3.95-10.71-12.45-23.02-30.55-30.9
			c-18.34-7.98-38.31-15.09-53.27-25C54.21,75.85,59.58,55.77,71.7,44.25c0,0,0,0.01-0.01,0.04c-0.01,0.02-0.02,0.05-0.02,0.08
			c-0.71,2.01-9.23,28.83,32.51,41.59c2.34,0.72,4.85,1.4,7.51,2.02c28.5,6.64,46.36,14.35,56.7,22.87c4,3.3,6.86,6.72,8.79,10.25
			c1.93-3.53,4.79-6.95,8.79-10.25c10.34-8.52,28.2-16.23,56.7-22.87c2.66-0.62,5.18-1.3,7.51-2.02
			c41.74-12.76,33.23-39.58,32.51-41.59c0-0.04-0.01-0.06-0.02-0.08c-0.01-0.02-0.01-0.04-0.01-0.04
			c12.12,11.51,17.49,31.6-9.64,49.33c-14.96,9.91-34.93,17.02-53.27,25c-18.1,7.88-26.6,20.19-30.55,30.9
			c-0.27,0.75-0.54,1.5-0.78,2.27c-0.19,0.58-0.36,1.16-0.51,1.73c-1.19,4.37-1.83,8.98-1.83,13.72c0,10.54,3.13,20.33,8.53,28.52
			c9.28,14.09,25.25,23.4,43.39,23.4c16.49,0,31.18-7.69,40.68-19.68C284.75,191.8,288.7,182.43,289.67,172.18z"/>
		<linearGradient id="SVGID_3_" gradientUnits="userSpaceOnUse" x1="76.3927" y1="426.5496" x2="318.6799" y2="37.4578">
			<stop  offset="0" style="stop-color:#07D5FB"/>
			<stop  offset="1" style="stop-color:#6B4AB6"/>
		</linearGradient>
		<path class="st3" d="M239.97,179.74c0-6.1-4.94-11.04-11.04-11.04c-3.42,0-6.48,1.56-8.51,4c-0.55-1.74-0.84-3.58-0.84-5.5
			c0-10.11,8.19-18.3,18.3-18.3c10.11,0,18.3,8.19,18.3,18.3c0,9.95-7.95,18.03-17.84,18.28
			C239.37,183.81,239.97,181.85,239.97,179.74z"/>
		<linearGradient id="SVGID_4_" gradientUnits="userSpaceOnUse" x1="65.1969" y1="421.3596" x2="307.4841" y2="32.2678">
			<stop  offset="0" style="stop-color:#07D5FB"/>
			<stop  offset="1" style="stop-color:#6B4AB6"/>
		</linearGradient>
		<path class="st4" d="M177.18,222.71c-6.01,7.81-13.73,14.24-22.51,18.76l22.51,36.24l22.52-36.23
			C190.92,236.96,183.2,230.53,177.18,222.71z"/>
		<path class="st5" d="M71.5,220.93"/>
		<linearGradient id="SVGID_5_" gradientUnits="userSpaceOnUse" x1="84.0973" y1="431.3473" x2="326.3845" y2="42.2555">
			<stop  offset="0" style="stop-color:#07D5FB"/>
			<stop  offset="1" style="stop-color:#6B4AB6"/>
		</linearGradient>
		<path class="st6" d="M77.96,204.14c-6.63,22.7-9.4,46.06-8.03,69c0.71,11.46,2.33,22.8,4.98,33.84
			c2.73,11.02,6.21,21.82,10.86,32.09c2.21,5.18,4.8,10.18,7.49,15.11c1.41,2.43,2.77,4.88,4.28,7.25c1.43,2.41,2.99,4.74,4.55,7.07
			c3.17,4.62,6.49,9.13,10.08,13.41c3.5,4.36,7.28,8.48,11.18,12.47c15.65,15.92,34.17,28.86,54.35,38.18l-14.85,8.73
			c1.01-14.13,4.82-28.06,10.91-40.84c6.13-12.77,14.67-24.34,24.95-33.99c10.34-9.58,22.37-17.35,35.43-22.5
			c6.52-2.59,13.26-4.6,20.12-5.93c6.86-1.32,13.83-2,20.77-2.05l-7.3,5.06c2.34-5.22,4.53-10.52,6.41-15.95
			c1.89-5.42,3.51-10.95,4.93-16.54c2.77-11.19,4.56-22.69,5.28-34.33c0.76-11.64,0.46-23.4-0.87-35.13
			c-1.35-11.73-3.71-23.43-7.07-34.97c5.46,10.71,9.76,22.11,12.77,33.91c3.05,11.79,4.83,23.98,5.4,36.27
			c0.55,12.29-0.11,24.71-2.08,36.97c-0.96,6.14-2.27,12.23-3.88,18.25c-1.62,6.02-3.48,11.99-5.73,17.82l-1.8,4.68l-5.5,0.39
			c-5.94,0.42-11.82,1.36-17.55,2.83c-5.73,1.45-11.32,3.38-16.67,5.82c-10.68,4.9-20.52,11.59-28.79,19.86
			c-8.34,8.19-15.12,17.9-20.02,28.43c-4.97,10.52-7.85,21.94-8.82,33.52l-1.26,15.06l-13.59-6.33
			c-22.55-10.51-43.08-25.37-59.84-43.64c-8.42-9.1-15.91-19.03-22.34-29.58c-6.46-10.53-11.81-21.71-16.03-33.26
			c-4.22-11.55-7.24-23.5-9.05-35.58c-1.84-12.08-2.34-24.3-1.78-36.38C61.11,248.99,67.19,225.22,77.96,204.14z"/>
	</g>
</g>
</svg>
